<mxfile host="app.diagrams.net" modified="2021-10-16T08:06:18.312Z" agent="5.0 (Windows NT 10.0; Win64; x64) AppleWebKit/537.36 (KHTML, like Gecko) Chrome/94.0.4606.81 Safari/537.36" etag="szVLhIsnPQKM6TEzNi9b" version="15.5.4" type="github">
  <diagram id="mYR2L3AKlq63D00oHqz3" name="Page-1">
    <mxGraphModel dx="1422" dy="737" grid="1" gridSize="10" guides="1" tooltips="1" connect="1" arrows="1" fold="1" page="1" pageScale="1" pageWidth="827" pageHeight="1169" math="0" shadow="0">
      <root>
        <mxCell id="0" />
        <mxCell id="1" parent="0" />
        <mxCell id="4dHMKYBh25yeZ5n-R9vf-1" value="" style="html=1;verticalLabelPosition=bottom;labelBackgroundColor=#ffffff;verticalAlign=top;shadow=0;dashed=0;strokeWidth=1;shape=mxgraph.ios7.misc.ipad7inch;strokeColor=#c0c0c0;" vertex="1" parent="1">
          <mxGeometry x="231" y="100" width="366" height="549" as="geometry" />
        </mxCell>
        <mxCell id="4dHMKYBh25yeZ5n-R9vf-7" value="Menyasszony" style="shape=umlActor;verticalLabelPosition=bottom;verticalAlign=top;html=1;outlineConnect=0;strokeColor=#FF0080;" vertex="1" parent="1">
          <mxGeometry x="330" y="270" width="30" height="60" as="geometry" />
        </mxCell>
        <mxCell id="4dHMKYBh25yeZ5n-R9vf-8" value="Vőlegény" style="shape=umlActor;verticalLabelPosition=bottom;verticalAlign=top;html=1;outlineConnect=0;strokeColor=#3399FF;" vertex="1" parent="1">
          <mxGeometry x="460" y="270" width="30" height="60" as="geometry" />
        </mxCell>
        <mxCell id="4dHMKYBh25yeZ5n-R9vf-9" value="Keresztnév" style="rounded=0;whiteSpace=wrap;html=1;strokeColor=#3399FF;" vertex="1" parent="1">
          <mxGeometry x="309" y="390" width="210" height="40" as="geometry" />
        </mxCell>
        <mxCell id="4dHMKYBh25yeZ5n-R9vf-10" value="Válassz..." style="rounded=0;whiteSpace=wrap;html=1;strokeColor=#3399FF;" vertex="1" parent="1">
          <mxGeometry x="294" y="200" width="240" height="40" as="geometry" />
        </mxCell>
        <mxCell id="4dHMKYBh25yeZ5n-R9vf-12" value="Tovább" style="rounded=0;whiteSpace=wrap;html=1;strokeColor=#3399FF;" vertex="1" parent="1">
          <mxGeometry x="410" y="560" width="170" height="35" as="geometry" />
        </mxCell>
        <mxCell id="4dHMKYBh25yeZ5n-R9vf-14" value="Vissza" style="rounded=0;whiteSpace=wrap;html=1;strokeColor=#3399FF;" vertex="1" parent="1">
          <mxGeometry x="250" y="560" width="160" height="35" as="geometry" />
        </mxCell>
      </root>
    </mxGraphModel>
  </diagram>
</mxfile>
